<svg id="Layer_1" data-name="Layer 1" xmlns="http://www.w3.org/2000/svg" viewBox="0 0 684.69 281.62"><defs><style>.cls-1{font-size:250px;font-family:Roboto-Regular, Roboto;}.cls-1,.cls-3{fill:#fca311;}.cls-2{font-size:72px;}</style></defs><title>title</title><text class="cls-1" transform="translate(0 213.87)"><tspan xml:space="preserve">J  </tspan><tspan class="cls-2" x="261.72" y="0"> </tspan><tspan x="279.54" y="0">bee</tspan></text><path class="cls-3" d="M255,198.31a65.92,65.92,0,0,0-93.23-93.23,64.64,64.64,0,0,0-9.91,79.56,2.78,2.78,0,0,1-.39,3.31l-33.63,33.63c-6.69,6.69-8.29,16-2.35,22l1,1c5.94,5.94,15.3,4.35,22-2.35l33.56-33.56a2.83,2.83,0,0,1,3.38-.45A64.64,64.64,0,0,0,255,198.31ZM174,186.14a48.71,48.71,0,1,1,68.89,0A48.76,48.76,0,0,1,174,186.14Z"/><path class="cls-3" d="M178.17,147.79a6.94,6.94,0,0,1-2.65-.54,6.8,6.8,0,0,1-3.61-8.92A42.86,42.86,0,0,1,228,115.58a6.8,6.8,0,1,1-5.3,12.53,29.25,29.25,0,0,0-38.3,15.52A6.81,6.81,0,0,1,178.17,147.79Z"/></svg>