<?xml version="1.0" standalone="no"?>
<!DOCTYPE svg PUBLIC "-//W3C//DTD SVG 20010904//EN"
 "http://www.w3.org/TR/2001/REC-SVG-20010904/DTD/svg10.dtd">
<svg version="1.0" xmlns="http://www.w3.org/2000/svg"
 width="700.000000pt" height="700.000000pt" viewBox="0 0 700.000000 700.000000"
 preserveAspectRatio="xMidYMid meet">
<metadata>
Created by potrace 1.11, written by Peter Selinger 2001-2013
</metadata>
<g transform="translate(0.000000,700.000000) scale(0.100000,-0.100000)"
fill="#000000" stroke="none">
<path d="M3917 6990 c-572 -55 -1086 -261 -1527 -610 -124 -98 -348 -320 -444
-440 -369 -462 -573 -990 -617 -1593 -36 -496 88 -1039 345 -1512 105 -193
194 -71 -702 -969 -462 -463 -787 -798 -816 -838 -95 -135 -156 -308 -156
-440 1 -158 60 -287 190 -412 127 -122 247 -175 398 -176 132 0 305 61 440
156 40 29 375 355 839 817 l772 770 44 -5 c29 -4 85 -27 159 -67 464 -254
1012 -378 1505 -342 523 38 962 186 1383 466 177 118 275 199 436 359 163 164
242 260 366 446 225 340 373 728 439 1160 32 209 33 590 0 800 -98 645 -379
1195 -832 1635 -237 230 -456 383 -749 524 -263 126 -529 207 -825 251 -158
24 -503 34 -648 20z m548 -756 c357 -52 708 -201 985 -417 96 -75 272 -250
350 -347 231 -289 375 -623 436 -1012 22 -139 22 -456 1 -593 -76 -477 -267
-857 -596 -1186 -282 -282 -601 -460 -996 -558 -150 -37 -301 -53 -490 -53
-469 1 -898 146 -1275 430 -97 73 -309 285 -382 382 -285 378 -429 805 -430
1275 -1 470 136 885 415 1265 135 183 379 406 580 529 282 173 624 280 972
305 87 6 326 -5 430 -20z"/>
<path d="M4015 5840 c-394 -63 -720 -224 -1002 -494 -163 -155 -276 -309 -381
-521 -49 -98 -56 -118 -60 -188 -4 -72 -2 -82 27 -142 87 -176 305 -219 451
-88 40 36 64 70 101 146 143 291 354 495 641 619 302 131 622 136 958 16 146
-51 255 -36 343 50 103 99 119 257 39 375 -42 61 -87 90 -203 133 -283 105
-626 141 -914 94z"/>
</g>
</svg>
